<svg width="55" height="50" viewBox="0 0 55 50" fill="none" xmlns="http://www.w3.org/2000/svg">
<path d="M48.3957 47.7223C48.2372 47.714 48.0741 47.7066 47.9141 47.6989C48.2059 47.1231 47.8265 46.3137 47.1379 46.1613C45.1172 45.7132 43.0356 45.9451 40.9512 45.3812C37.6064 44.4763 34.4922 42.8234 31.6178 41.0342C25.9402 37.4995 19.8766 30.9615 27.7283 26.3245C28.6572 25.7763 28.3873 24.137 27.1212 24.2514C25.1508 24.4299 23.1772 24.5269 21.201 24.6291C22.2465 24.0899 23.0947 22.8291 23.7512 22.083C25.0767 20.5762 26.5998 19.9738 28.6968 19.8577C30.012 19.7849 30.2067 18.1985 28.9998 17.7889C28.7721 17.7116 28.5513 17.3937 28.337 17.2569C27.8311 16.9336 27.3128 16.6816 26.7519 16.4486C26.2333 16.2332 25.7027 16.0449 25.1709 15.859C27.8052 15.0165 29.4607 12.1083 32.6366 11.9803C33.7913 11.9338 34.3018 10.7301 33.5483 9.94465C32.7409 9.10294 32.1381 8.22855 31.4699 7.3956C33.1245 7.32176 34.7756 7.39188 36.4302 7.63438C36.9928 7.71699 37.4717 6.95336 36.8541 6.70449C34.3785 5.70712 31.6858 5.59504 29.0509 5.22849C27.5425 5.01866 26.7749 6.62852 28.0258 7.47767C29.0297 8.15923 29.6961 9.06681 30.3727 9.97945C29.3137 10.2764 28.3281 10.7285 27.3524 11.3904C25.9229 12.3601 24.1529 13.3707 23.1114 14.6967C22.7688 15.1331 23.0537 15.7472 23.5318 15.9812C23.5522 16.0916 23.6133 16.1947 23.7357 16.2595C24.3829 16.6024 25.0422 16.9251 25.6906 17.2664C25.8256 17.3374 26.2882 17.5961 26.7241 17.8627C25.1798 18.0718 23.7854 18.604 22.546 19.6745C21.8878 20.2429 21.3437 20.9273 20.7498 21.551C19.9917 22.3473 19.1346 22.8033 18.9781 23.9067C18.8977 24.4737 19.5211 24.8273 20.0299 24.8796C20.1192 24.8889 20.2031 24.869 20.2901 24.8655C19.8823 25.2538 20.0546 26.0385 20.8179 26.0783C21.8092 26.1301 22.7995 26.1803 23.7894 26.2377C19.0729 30.4749 21.7388 36.3584 26.7657 40.7136C28.6064 42.3081 32.7595 45.2524 37.0487 47.1852C23.2768 46.3206 8.32952 43.7341 3.91452 30.3442C1.35424 22.5789 5.59696 14.1447 11.3849 8.64768C14.437 5.74882 18.3455 3.83006 22.5836 2.9416C27.6344 1.88261 31.6146 4.00643 36.021 5.83568C37.1372 6.2989 38.2399 5.12969 37.3546 4.23751C31.1586 -2.00644 20.5316 -0.551164 13.5173 3.46963C5.28022 8.1911 0.216534 17.148 0.00461352 25.9837C-0.215347 35.1637 7.46174 43.2505 16.2452 46.625C26.5053 50.5669 37.5343 50.2299 48.3957 49.6503C49.7381 49.5783 49.7396 47.7916 48.3957 47.7223Z" fill="#00B2A0"/>
<path d="M54.7901 44.1407C53.7744 41.9994 52.0478 40.1715 50.0403 38.5858C50.0601 34.9076 50.1095 31.2282 50.0747 27.5503C50.0736 27.4198 50.0569 27.2987 50.0297 27.1853C50.1747 25.8023 50.0627 24.4548 49.8025 23.1053C49.8045 23.1042 49.8068 23.1026 49.8088 23.1016C50.753 22.8657 51.518 22.1592 52.2663 21.6065C52.8667 21.1629 53.4729 20.7129 54.0389 20.2282C54.1538 20.1424 54.262 20.0489 54.3677 19.9552C56.0054 18.4956 53.5206 16.2064 51.8789 17.6531C51.6337 17.8691 51.3718 18.0677 51.1099 18.2654C50.9365 18.396 50.7602 18.5238 50.5847 18.6518C50.4914 18.7195 50.3978 18.787 50.3039 18.8542C50.5577 18.6717 50.0905 19.0043 50.094 19.0019C49.7233 19.2635 49.3158 19.5137 48.935 19.7886C48.6685 18.9419 48.3314 18.0499 47.8209 17.3477C48.2398 17.166 48.6427 16.9655 49.0025 16.7317C50.4983 15.7609 51.8094 14.0807 51.0936 12.3104C50.6726 11.2695 49.8651 10.5297 48.852 9.95391C48.6292 9.82721 48.3808 9.71087 48.1362 9.59374C47.9911 9.35868 47.8295 9.13078 47.6276 8.92175C47.5308 8.82135 47.4329 8.74459 47.3356 8.66225C47.3729 8.38655 47.1946 8.08747 46.8198 8.10102C46.6628 8.10659 46.5088 8.10394 46.3541 8.10288C45.9552 7.98255 45.5598 7.98202 45.1733 8.06994C43.9222 8.02133 42.7468 8.03541 41.6479 8.94433C40.9116 9.5531 40.586 10.3369 40.5782 11.1765C39.5471 13.4358 39.268 16.2215 41.906 17.5201C42.3353 17.7315 42.8011 17.8608 43.2784 17.9501C43.0035 18.8149 42.7965 19.6861 42.6317 20.5645C40.9174 20.9137 39.139 21.815 37.6918 22.3608C35.5677 22.9727 36.4512 26.0092 38.6129 25.4514C39.8354 25.1359 41.0098 24.6798 42.1886 24.2474C42.1352 25.095 42.1053 25.9521 42.0936 26.8214C42.091 27.0108 42.1513 27.2217 42.2437 27.4212C41.9382 28.2871 41.6223 29.2695 41.4164 30.2348C41.1425 31.1155 40.864 31.9955 40.5636 32.8694C37.659 31.4016 33.8221 29.8693 31.329 31.3912C31.3218 31.3822 31.3135 31.3737 31.306 31.3647C30.3986 30.2478 28.4994 31.1899 29.2399 32.4821C33.891 40.5991 43.1167 45.1509 52.61 46.7642C54.3694 47.0627 55.4862 45.608 54.7901 44.1407ZM34.0211 34.2768C34.3467 34.3432 34.6867 34.4441 35.0206 34.5294C34.9793 34.7669 35.0189 35.0149 35.1579 35.2309C35.1892 35.2792 35.2294 35.3228 35.2616 35.3703C34.842 35.0147 34.4239 34.6572 34.0211 34.2768ZM43.5589 34.4638C43.6525 34.4088 43.7418 34.3406 43.8214 34.2518C44.4184 33.5886 44.5596 32.8279 44.6782 32.0239C45.2089 30.9931 45.6712 29.941 46.058 28.8682C46.2745 28.8956 46.4962 28.911 46.7159 28.9312C46.7056 31.3862 46.7168 33.8412 46.7351 36.2965C45.6738 35.6402 44.5987 35.0311 43.5589 34.4638Z" fill="#00B2A0"/>
</svg>
